<?xml version="1.0" standalone="no"?>
<!DOCTYPE svg PUBLIC "-//W3C//DTD SVG 20010904//EN"
 "http://www.w3.org/TR/2001/REC-SVG-20010904/DTD/svg10.dtd">
<svg version="1.0" xmlns="http://www.w3.org/2000/svg"
 width="2212.000000pt" height="813.000000pt" viewBox="0 0 2212.000000 813.000000"
 preserveAspectRatio="xMidYMid meet">

<g transform="translate(0.000000,813.000000) scale(0.100000,-0.100000)"
fill="#000000" stroke="none">
<path d="M7158 6773 c7 -3 16 -2 19 1 4 3 -2 6 -13 5 -11 0 -14 -3 -6 -6z"/>
<path d="M7250 6740 c8 -5 20 -10 25 -10 6 0 3 5 -5 10 -8 5 -19 10 -25 10 -5
0 -3 -5 5 -10z"/>
<path d="M4740 6631 c0 -6 4 -13 10 -16 6 -3 7 1 4 9 -7 18 -14 21 -14 7z"/>
<path d="M5018 6563 c6 -2 18 -2 25 0 6 3 1 5 -13 5 -14 0 -19 -2 -12 -5z"/>
<path d="M4968 6538 c-10 -10 -14 -18 -9 -18 10 0 36 29 30 34 -2 1 -12 -6
-21 -16z"/>
<path d="M4911 6469 c-7 -12 -10 -23 -8 -26 3 -3 11 5 17 17 15 28 8 35 -9 9z"/>
<path d="M16609 6446 c-2 -2 -3 -603 -1 -1335 l2 -1331 180 0 180 0 0 1335 0
1335 -178 0 c-98 0 -181 -2 -183 -4z"/>
<path d="M10479 6436 c-2 -2 -3 -601 -1 -1330 l2 -1326 190 0 190 0 0 675 0
675 193 2 192 3 3 158 3 157 -196 0 -195 0 0 495 0 495 -188 0 c-104 0 -191
-2 -193 -4z"/>
<path d="M16057 6393 c-4 -3 -7 -212 -7 -464 l0 -457 -142 1 -143 0 -3 -151
-3 -151 24 -6 c13 -4 78 -5 145 -3 l122 3 0 -632 0 -633 180 0 180 0 0 1250 0
1250 -173 0 c-96 0 -177 -3 -180 -7z"/>
<path d="M12020 6243 l0 -148 722 0 723 0 0 -90 0 -90 -717 -3 -718 -2 0 -370
0 -370 935 0 936 0 -3 143 -3 142 -747 3 -748 2 0 90 0 90 720 0 720 0 0 375
0 375 -910 0 -910 0 0 -147z"/>
<path d="M8852 5313 l3 -918 645 0 645 0 3 918 2 917 -190 0 -190 0 0 -320 0
-320 -270 0 -270 0 0 320 0 320 -190 0 -190 0 2 -917z m918 -318 l0 -295 -270
0 -270 0 0 295 0 295 270 0 270 0 0 -295z"/>
<path d="M17901 6060 l1 -150 760 -2 760 -3 -2 -210 c0 -115 -2 -211 -4 -213
-4 -3 -528 -22 -1191 -42 -209 -7 -383 -15 -387 -19 -5 -4 2 -73 14 -154 l23
-147 45 0 c25 0 254 11 510 25 731 38 960 49 965 44 8 -8 -26 -243 -60 -414
-19 -93 -33 -170 -32 -171 4 -4 313 -34 343 -34 l32 0 26 138 c73 389 87 542
93 1065 l6 437 -952 0 -952 0 2 -150z"/>
<path d="M14760 6148 c-5 -218 -3 -1779 2 -1781 4 -1 184 1 400 4 375 6 636
24 693 48 20 8 20 11 6 155 -12 120 -17 146 -30 146 -9 0 -69 -7 -134 -15 -92
-11 -463 -35 -559 -35 -17 0 -18 18 -18 235 l0 235 260 0 260 0 0 145 0 145
-260 0 -260 0 0 210 0 210 310 0 310 0 0 150 0 150 -490 0 c-269 0 -490 -1
-490 -2z"/>
<path d="M4705 5370 c3 -5 8 -10 11 -10 2 0 4 5 4 10 0 6 -5 10 -11 10 -5 0
-7 -4 -4 -10z"/>
<path d="M4700 5185 c0 -8 2 -15 4 -15 2 0 6 7 10 15 3 8 1 15 -4 15 -6 0 -10
-7 -10 -15z"/>
<path d="M11720 4850 l0 -150 1210 0 1210 0 0 150 0 150 -1210 0 -1210 0 0
-150z"/>
<path d="M12030 4185 l0 -365 935 0 935 0 0 155 0 155 -745 0 -745 0 0 210 0
210 -190 0 -190 0 0 -365z"/>
<path d="M17640 4405 c0 -3 -1 -74 -1 -157 l0 -153 1200 -3 1201 -2 0 160 0
160 -1200 0 c-660 0 -1200 -2 -1200 -5z"/>
<path d="M1645 4272 c-61 -20 -131 -86 -165 -157 l-25 -50 -3 -1195 c-2 -891
0 -1209 9 -1250 15 -72 50 -130 103 -173 85 -71 27 -68 1267 -65 1110 3 1114
3 1160 24 60 28 116 86 148 154 l26 55 0 1220 0 1220 -27 57 c-31 67 -86 123
-148 152 -45 21 -53 21 -1170 23 -1026 2 -1129 0 -1175 -15z m2215 -217 c16
-8 42 -32 57 -52 l28 -36 3 -1101 2 -1101 -22 -45 c-13 -25 -38 -55 -57 -67
l-34 -23 -1027 0 -1027 0 -34 23 c-18 12 -44 38 -56 56 l-23 34 0 1106 0 1106
23 38 c13 21 36 46 53 57 28 18 68 19 1057 19 895 1 1032 -1 1057 -14z"/>
<path d="M7176 4193 c-6 -14 -5 -15 5 -6 7 7 10 15 7 18 -3 3 -9 -2 -12 -12z"/>
<path d="M4967 4139 c7 -7 15 -10 18 -7 3 3 -2 9 -12 12 -14 6 -15 5 -6 -5z"/>
<path d="M7125 4140 c-3 -6 1 -7 9 -4 18 7 21 14 7 14 -6 0 -13 -4 -16 -10z"/>
<path d="M5203 4103 c48 -2 125 -2 170 0 45 1 6 3 -88 3 -93 0 -130 -2 -82 -3z"/>
<path d="M5658 4103 c6 -2 18 -2 25 0 6 3 1 5 -13 5 -14 0 -19 -2 -12 -5z"/>
<path d="M5718 4103 c7 -3 16 -2 19 1 4 3 -2 6 -13 5 -11 0 -14 -3 -6 -6z"/>
<path d="M6083 4103 c181 -2 473 -2 650 0 177 1 30 2 -328 2 -357 0 -502 -1
-322 -2z"/>
<path d="M4740 4041 c0 -6 4 -13 10 -16 6 -3 7 1 4 9 -7 18 -14 21 -14 7z"/>
<path d="M7325 4000 c-3 -5 -1 -10 4 -10 6 0 11 5 11 10 0 6 -2 10 -4 10 -3 0
-8 -4 -11 -10z"/>
<path d="M7280 3950 c-12 -11 -31 -22 -42 -26 -11 -3 -17 -8 -15 -11 7 -6 61
22 76 41 18 22 9 20 -19 -4z"/>
<path d="M4860 3920 c8 -5 24 -10 34 -10 26 0 18 6 -19 14 -22 5 -26 4 -15 -4z"/>
<path d="M4934 3406 c-17 -8 -44 -27 -59 -42 -57 -60 -55 -35 -55 -784 0 -747
-2 -724 54 -782 59 -61 25 -59 740 -56 647 3 655 3 683 24 15 11 42 40 58 63
l30 43 3 685 c2 460 -1 697 -8 724 -13 48 -64 107 -107 125 -48 20 -1293 20
-1339 0z m1231 -240 c14 -20 15 -93 13 -593 -2 -465 -6 -573 -17 -586 -12 -15
-64 -17 -557 -17 l-543 0 -15 22 c-14 20 -16 92 -16 588 0 496 2 568 16 588
l15 22 544 0 545 0 15 -24z"/>
<path d="M18300 2750 c-155 -21 -311 -140 -384 -293 -86 -178 -98 -429 -31
-627 29 -84 52 -126 114 -199 178 -213 527 -227 726 -30 l40 39 -42 41 -41 42
-49 -41 c-96 -79 -186 -106 -303 -90 -216 29 -340 219 -340 517 0 184 39 309
126 402 85 90 178 126 303 117 71 -5 129 -29 195 -81 l39 -31 39 43 c37 42 38
45 21 63 -32 36 -133 97 -186 112 -73 20 -151 26 -227 16z"/>
<path d="M8862 2108 l3 -623 245 0 c264 1 325 9 419 53 71 33 126 84 159 146
25 46 27 61 27 161 0 102 -2 113 -27 157 -36 61 -89 104 -162 130 l-58 21 35
19 c89 45 147 147 147 257 0 147 -77 238 -239 283 -55 15 -104 18 -308 18
l-243 0 2 -622z m543 477 c82 -41 108 -90 102 -187 -5 -86 -36 -129 -116 -167
-52 -24 -67 -26 -223 -29 l-168 -4 0 204 c0 113 3 208 8 212 4 4 81 6 172 4
160 -3 167 -4 225 -33z m-55 -506 c98 -16 168 -54 204 -113 26 -41 30 -57 29
-115 -1 -78 -11 -106 -54 -155 -67 -77 -139 -96 -361 -96 l-168 0 0 238 c0
131 3 242 7 245 10 11 271 8 343 -4z"/>
<path d="M10173 2548 c-67 -201 -309 -909 -341 -1001 -24 -68 -23 -70 63 -65
l58 3 64 198 64 197 233 0 233 0 21 -67 c69 -228 96 -309 105 -320 10 -13 128
-19 140 -7 3 3 -40 137 -95 297 -55 161 -150 439 -211 619 l-112 328 -80 0
-80 0 -62 -182z m263 -325 c36 -112 67 -210 70 -218 5 -13 -19 -15 -190 -15
-108 0 -196 3 -196 7 0 3 29 97 64 207 36 111 77 244 92 296 14 52 29 100 32
105 4 6 19 -33 35 -85 16 -52 58 -186 93 -297z"/>
<path d="M11002 2108 l3 -623 68 -3 67 -3 0 271 0 270 119 0 120 0 69 -117
c37 -65 108 -187 156 -270 l88 -153 74 0 c41 0 74 4 74 9 0 6 -70 130 -155
277 -85 147 -155 268 -155 269 0 2 12 6 28 9 44 11 124 56 161 90 75 70 113
205 91 326 -15 82 -38 127 -90 174 -91 82 -158 96 -468 96 l-252 0 2 -622z
m473 501 c76 -14 127 -40 159 -82 34 -45 50 -129 36 -192 -20 -89 -52 -129
-135 -167 -44 -20 -69 -23 -222 -26 l-173 -4 0 234 c0 129 3 238 7 241 11 11
264 8 328 -4z"/>
<path d="M12072 2108 l3 -623 363 -3 362 -2 0 60 0 60 -290 0 -290 0 0 240 0
240 238 2 237 3 2 58 3 57 -240 0 -240 0 0 205 0 205 283 2 282 3 3 58 3 57
-361 0 -360 0 2 -622z"/>
<path d="M13070 2303 c0 -461 5 -511 54 -619 79 -172 269 -254 491 -213 123
23 215 91 271 201 57 111 57 117 61 606 l4 452 -65 0 -66 0 0 -373 c0 -205 -5
-410 -10 -455 -20 -156 -68 -240 -164 -287 -45 -22 -68 -27 -137 -27 -71 0
-90 4 -137 29 -66 34 -104 79 -134 158 -22 58 -23 71 -26 508 l-3 447 -69 0
-70 0 0 -427z"/>
<path d="M14292 2108 l3 -623 65 0 65 0 3 350 c2 193 -2 431 -8 529 -5 99 -8
181 -6 183 2 2 32 -49 66 -114 35 -65 128 -230 208 -368 80 -137 179 -308 220
-380 41 -71 86 -147 99 -167 l23 -38 70 0 70 0 0 625 0 625 -65 0 -65 0 1
-432 c0 -238 4 -475 7 -526 4 -52 5 -96 3 -98 -3 -2 -40 62 -83 143 -43 82
-178 319 -301 528 l-222 380 -78 3 -77 3 2 -623z"/>
<path d="M15782 2673 l3 -58 188 -3 187 -2 0 -566 0 -565 73 3 72 3 3 563 2
562 190 0 190 0 0 60 0 60 -455 0 -456 0 3 -57z"/>
<path d="M16920 2105 l0 -625 363 2 362 3 3 58 3 57 -296 0 -295 0 0 240 0
240 238 2 237 3 3 58 3 57 -241 0 -240 0 0 205 0 205 285 0 285 0 0 60 0 60
-355 0 -355 0 0 -625z"/>
<path d="M19000 2105 l0 -626 68 3 67 3 3 298 2 297 300 0 300 0 2 -297 3
-298 68 -3 67 -3 0 626 0 625 -70 0 -70 0 -2 -262 -3 -263 -295 0 -295 0 -3
263 -2 262 -70 0 -70 0 0 -625z"/>
</g>
</svg>
